<?xml version="1.0" encoding="UTF-8"?>
<svg width="98px" height="81px" viewBox="0 0 98 81" version="1.1" xmlns="http://www.w3.org/2000/svg" xmlns:xlink="http://www.w3.org/1999/xlink">
    <!-- Generator: Sketch 49.1 (51147) - http://www.bohemiancoding.com/sketch -->
    <title>happySadIcon</title>
    <desc>Created with Sketch.</desc>
    <defs></defs>
    <g id="icon" stroke="none" stroke-width="1" fill="none" fill-rule="evenodd">
        <g id="Artboard" transform="translate(-1.000000, -12.000000)" stroke="#000000" stroke-width="2">
            <g id="happySadIcon" transform="translate(1.000000, 12.000000)">
                <path d="M48.0895252,11.1648061 C48.6647704,11.1749636 49.2406303,11.1801033 49.8171044,11.1802248 L48.7455099,9.02837651 L48.0895252,11.1648061 Z M92.5350447,1.48783608 C92.9477724,1.29505422 93.3601395,1.09939786 93.7721457,0.900867109 L92.3476676,0.138352446 C92.4107808,0.590141987 92.4732397,1.03997002 92.5350447,1.48783608 Z M6.99389237,1.41896779 C7.0957969,1.03393151 7.19900257,0.647794119 7.30350953,0.260555599 L5.90395571,0.900867109 C6.26698779,1.07579902 6.63030007,1.24849928 6.99389237,1.41896779 Z" id="Rectangle"></path>
                <g id="Sad-Face" transform="translate(82.302749, 29.990248) rotate(-34.000000) translate(-82.302749, -29.990248) translate(63.302749, 6.990248)">
                    <path d="M12.1582989,41.9808799 C16.8527193,41.9808799 20,45.6421356 20,41.5 C20,37.3578644 16.1944204,34 11.5,34 C6.80557963,34 3,37.3578644 3,41.5 C3,45.6421356 7.46387853,41.9808799 12.1582989,41.9808799 Z" id="Oval" transform="translate(11.500000, 38.737230) rotate(19.000000) translate(-11.500000, -38.737230) "></path>
                    <path d="M3.80444906,4.51668804 C3.33065886,9.07697657 3.37985935,12.2510084 3.92586471,13.9776454 C4.81737912,16.7968884 6.50798667,18.026273 9.38233938,18.026273 C12.0936964,18.026273 13.7682709,16.776156 15.0585937,13.8730066 C15.79426,12.2178014 15.9031994,8.88206673 15.3334586,3.95355145 C12.3351526,6.41905478 10.1573922,7.65084677 8.62552053,7.65084677 C7.1659273,7.65084677 5.59479612,6.59291543 3.80444906,4.51668804 Z" id="Rectangle-2" transform="translate(9.588150, 10.511743) rotate(14.000000) translate(-9.588150, -10.511743) "></path>
                    <path d="M22.6334866,9.07588094 C22.1596964,13.6361695 22.2088969,16.8102013 22.7549023,18.5368383 C23.6464167,21.3560813 25.3370242,22.5854659 28.211377,22.5854659 C30.922734,22.5854659 32.5973084,21.3353489 33.8876313,18.4321995 C34.6232976,16.7769943 34.732237,13.4412596 34.1624962,8.51274436 C31.1641901,10.9782477 28.9864297,12.2100397 27.4545581,12.2100397 C25.9949649,12.2100397 24.4238337,11.1521083 22.6334866,9.07588094 Z" id="Rectangle-2-Copy" transform="translate(28.417188, 15.070936) rotate(14.000000) translate(-28.417188, -15.070936) "></path>
                </g>
                <g id="Sad-Face-Copy" transform="translate(4.000000, 12.000000)">
                    <path d="M13.1582989,43.9808799 C17.8527193,43.9808799 21,47.6421356 21,43.5 C21,39.3578644 17.1944204,36 12.5,36 C7.80557963,36 4,39.3578644 4,43.5 C4,47.6421356 8.46387853,43.9808799 13.1582989,43.9808799 Z" id="Oval" transform="translate(12.500000, 40.737230) rotate(-170.000000) translate(-12.500000, -40.737230) "></path>
                    <path d="M3.70556682,4.56926466 C3.23177662,9.12955319 3.28097711,12.303585 3.82698246,14.030222 C4.71849688,16.849465 6.40910443,18.0788496 9.28345714,18.0788496 C11.9948141,18.0788496 13.6693886,16.8287326 14.9597115,13.9255833 C15.6953778,12.2703781 15.8043172,8.93464335 15.2345764,4.00612807 C12.2362703,6.4716314 10.0585099,7.70342339 8.52663828,7.70342339 C7.06704506,7.70342339 5.49591387,6.64549205 3.70556682,4.56926466 Z" id="Rectangle-2" transform="translate(9.489268, 10.564320) rotate(-168.000000) translate(-9.489268, -10.564320) "></path>
                    <path d="M21.7055668,8.56926466 C21.2317766,13.1295532 21.2809771,16.303585 21.8269825,18.030222 C22.7184969,20.849465 24.4091044,22.0788496 27.2834571,22.0788496 C29.9948141,22.0788496 31.6693886,20.8287326 32.9597115,17.9255833 C33.6953778,16.2703781 33.8043172,12.9346433 33.2345764,8.00612807 C30.2362703,10.4716314 28.0585099,11.7034234 26.5266383,11.7034234 C25.0670451,11.7034234 23.4959139,10.6454921 21.7055668,8.56926466 Z" id="Rectangle-2-Copy" transform="translate(27.489268, 14.564320) rotate(-158.000000) translate(-27.489268, -14.564320) "></path>
                </g>
            </g>
        </g>
    </g>
</svg>